<svg id="Capa_1" data-name="Capa 1" xmlns="http://www.w3.org/2000/svg" viewBox="0 0 512 512"><defs><style>.cls-1{fill:#e5304f;}</style></defs><title>youtube integrado</title><path class="cls-1" d="M224.11,304l83.28-48-83.28-48Z" transform="translate(0 0)"/><path class="cls-1" d="M256,0C114.64,0,0,114.64,0,256S114.64,512,256,512,512,397.36,512,256,397.36,0,256,0ZM416,256.26s0,51.92-6.58,76.95a40.1,40.1,0,0,1-28.2,28.2C356.14,368,256,368,256,368s-99.88,0-125.18-6.85A40.09,40.09,0,0,1,102.63,333C96,308.18,96,256,96,256s0-51.91,6.59-76.95a40.88,40.88,0,0,1,28.19-28.46C155.86,144,256,144,256,144s100.14,0,125.18,6.85a40.12,40.12,0,0,1,28.2,28.2C416.23,204.09,416,256.26,416,256.26Z" transform="translate(0 0)"/></svg>